<svg width="20" height="11" viewBox="0 0 20 11" fill="none" xmlns="http://www.w3.org/2000/svg">
<path d="M18.7331 10.343C18.0355 11.0566 17.0643 11.1126 16.2115 10.343L9.9587 4.34782L3.7059 10.343C2.8531 11.1126 1.8803 11.0566 1.1875 10.343C0.489902 9.63102 0.534702 8.42782 1.1875 7.75902C1.8371 7.09022 8.6995 0.555817 8.6995 0.555817C8.86292 0.386452 9.05878 0.251748 9.2754 0.159744C9.49202 0.0677404 9.72496 0.0203228 9.9603 0.0203228C10.1957 0.0203228 10.4286 0.0677404 10.6452 0.159744C10.8618 0.251748 11.0577 0.386452 11.2211 0.555817C11.2211 0.555817 18.0803 7.09022 18.7331 7.75902C19.3875 8.42782 19.4307 9.63102 18.7331 10.343Z" fill="#636363"/>
</svg>
